<svg width="80" height="80" viewBox="0 0 80 80" fill="none" xmlns="http://www.w3.org/2000/svg">
<path d="M44.2855 61.2245C44.2855 62.5235 43.834 63.7693 43.0303 64.6879C42.2267 65.6064 41.1366 66.1225 40.0001 66.1225C38.8635 66.1225 37.7735 65.6064 36.9698 64.6879C36.1661 63.7693 35.7146 62.5235 35.7146 61.2245C35.7146 59.9255 36.1661 58.6797 36.9698 57.7611C37.7735 56.8426 38.8635 56.3265 40.0001 56.3265C41.1366 56.3265 42.2267 56.8426 43.0303 57.7611C43.834 58.6797 44.2855 59.9255 44.2855 61.2245ZM42.857 30.2041V48.9796C42.857 49.4286 42.5356 49.7959 42.1428 49.7959H37.8573C37.4645 49.7959 37.1431 49.4286 37.1431 48.9796V30.2041C37.1431 29.7551 37.4645 29.3878 37.8573 29.3878H42.1428C42.5356 29.3878 42.857 29.7551 42.857 30.2041ZM0.386292 75.102L37.527 1.63265C38.0805 0.540816 39.0358 0 40.0001 0C40.9643 0 41.9285 0.540816 42.4731 1.63265L79.6138 75.102C80.712 77.2857 79.3371 80 77.1408 80H2.85936C0.663055 80 -0.711861 77.2857 0.386292 75.102ZM70.3376 72.2551L40.0001 12.2347L9.66254 72.2551H70.3376Z" fill="#6F94F7"/>
</svg>
