<svg width="80" height="78" viewBox="0 0 80 78" fill="none" xmlns="http://www.w3.org/2000/svg">
<path d="M40 78C62.0913 78 80 60.539 80 39C80 17.461 62.0913 0 40 0C17.9087 0 -7.62939e-06 17.461 -7.62939e-06 39C-7.62939e-06 60.539 17.9087 78 40 78ZM40 8.47827C57.2913 8.47827 71.3043 22.1452 71.3043 39C71.3043 55.8548 57.2913 69.5217 40 69.5217C22.7087 69.5217 8.69573 55.8548 8.69573 39C8.69573 22.1452 22.7087 8.47827 40 8.47827ZM32.1739 55.3207H47.8261V37.9826H57.6087L40 21.8315L22.3913 37.9826H32.1739V55.3207Z" fill="#6F94F7"/>
</svg>
