<svg width="146" height="21" viewBox="0 0 146 21" fill="none" xmlns="http://www.w3.org/2000/svg">
<path d="M0 0L17.1001 3.04001C18.0546 3.20971 18.75 4.03961 18.75 5.00914V7.5L0 4.16667V0Z" fill="#5D7CD2"/>
<path d="M6.25 12.4999L25 15.8333V19.9999L7.89993 16.9599C6.94537 16.7902 6.25 15.9603 6.25 14.9908V12.4999Z" fill="#5D7CD2"/>
<path d="M3.125 6.25007L21.05 9.43674C21.5273 9.52159 21.875 9.93654 21.875 10.4213V13.7501L3.94997 10.5634C3.47269 10.4785 3.125 10.0636 3.125 9.57883V6.25007Z" fill="#5D7CD2"/>
<path d="M34.862 13.9883H40.7891V16.9502H31V14.5525L33.4276 10.9056H31.9143V8.48781H35.0354L36.8324 5.78791H31.2049V2.82609H40.6945V5.2439L38.3457 8.76988H39.7171V11.1877H36.7379L34.862 13.9883Z" fill="white"/>
<path d="M46.4131 14.3712C47.1908 14.3712 47.9001 13.9279 48.5412 13.0414L50.1175 14.8547C49.1297 16.3323 47.8266 17.0711 46.2082 17.0711C45.2939 17.0711 44.49 16.8427 43.7964 16.386C43.1028 15.9293 42.5616 15.2846 42.1728 14.4518C41.7945 13.6189 41.6053 12.6518 41.6053 11.5504C41.6053 10.4355 41.7892 9.45493 42.157 8.6087C42.5248 7.76246 43.045 7.10428 43.7176 6.63415C44.4007 6.16402 45.1888 5.92895 46.0821 5.92895C46.9228 5.92895 47.6584 6.14387 48.289 6.5737C48.93 6.9901 49.4292 7.58784 49.7865 8.36691C50.1438 9.14599 50.333 10.0661 50.354 11.1273L44.6476 12.8802C44.8053 13.3503 45.0365 13.7197 45.3412 13.9883C45.646 14.2435 46.0033 14.3712 46.4131 14.3712ZM46.1767 8.46766C45.6723 8.46766 45.2624 8.68257 44.9471 9.11241C44.6424 9.52881 44.469 10.1265 44.4269 10.9056L47.5954 9.8982C47.4903 9.42807 47.3169 9.07211 47.0752 8.83033C46.8335 8.58855 46.534 8.46766 46.1767 8.46766Z" fill="white"/>
<path d="M56.6546 16.386C56.3499 16.6144 55.9978 16.7957 55.5985 16.93C55.1992 17.0509 54.7946 17.1113 54.3847 17.1113C53.523 17.1113 52.8294 16.789 52.304 16.1442C51.7785 15.4995 51.5158 14.6062 51.5158 13.4645V3.55143H54.2901V6.5737H56.5128V8.95122H54.2901V12.9003C54.2901 13.3302 54.3637 13.6592 54.5108 13.8876C54.658 14.1025 54.8629 14.21 55.1256 14.21C55.4304 14.21 55.7614 14.0891 56.1187 13.8473L56.6546 16.386Z" fill="white"/>
<path d="M63.7224 5.9088C64.6682 5.9088 65.4196 6.28491 65.9766 7.03712C66.5441 7.78933 66.8278 8.80346 66.8278 10.0795V16.9502H64.0219V11.1071C64.0219 10.4892 63.8906 10.0057 63.6278 9.65642C63.3756 9.29374 63.0236 9.11241 62.5717 9.11241C62.0568 9.12584 61.6469 9.36091 61.3422 9.8176C61.0479 10.2609 60.9008 10.8452 60.9008 11.5705V16.9502H58.0949V2H60.9008V7.82291C61.2055 7.19159 61.5944 6.71474 62.0673 6.39236C62.5507 6.06999 63.1024 5.9088 63.7224 5.9088Z" fill="white"/>
<path d="M77.1798 6.04984V15.8218C77.1798 16.8293 76.9906 17.7225 76.6123 18.5016C76.234 19.2941 75.7033 19.9053 75.0202 20.3351C74.3476 20.7784 73.5857 21 72.7345 21C72.0619 21 71.3631 20.8657 70.638 20.597C69.9234 20.3284 69.3086 19.9859 68.7937 19.5695L69.5346 17.0308C70.0075 17.3666 70.5066 17.6352 71.0321 17.8367C71.5575 18.0382 72.0252 18.1389 72.435 18.1389C73.013 18.1389 73.4807 17.924 73.838 17.4942C74.2058 17.0643 74.3897 16.4867 74.3897 15.7614V14.1898C73.7907 15.4256 72.8764 16.0435 71.6468 16.0435C70.6695 16.0435 69.8919 15.6674 69.3139 14.9152C68.7464 14.163 68.4626 13.1488 68.4626 11.8727V6.04984H71.2685V10.8452C71.2685 11.4631 71.3946 11.9466 71.6468 12.2959C71.9096 12.6451 72.2669 12.8197 72.7188 12.8197C73.2337 12.8197 73.6383 12.5981 73.9325 12.1548C74.2373 11.6981 74.3897 11.0802 74.3897 10.3012V6.04984H77.1798Z" fill="white"/>
<path d="M82.0348 7.8632C82.329 7.23188 82.7074 6.74832 83.1698 6.41251C83.6427 6.07671 84.1786 5.9088 84.7776 5.9088V9.193C84.683 9.17957 84.5412 9.17285 84.352 9.17285C83.6899 9.17285 83.154 9.37434 82.7441 9.77731C82.3343 10.1668 82.0978 10.7041 82.0348 11.3892V16.9502H79.2289V6.04984H82.0348V7.8632Z" fill="white"/>
<path d="M89.9116 4.51856C89.2705 4.51856 88.7556 4.76706 88.3667 5.26405C87.9779 5.74761 87.7835 6.4058 87.7835 7.2386V9.49523H92.1657V11.2481H87.7835V16.9502H86.2702V7.1983C86.2702 6.31177 86.4121 5.5327 86.6958 4.86108C86.9901 4.18947 87.3999 3.67232 87.9254 3.30965C88.4613 2.94698 89.0813 2.76564 89.7854 2.76564C90.3634 2.76564 90.9414 2.84624 91.5194 3.00742C92.1079 3.16861 92.6229 3.37681 93.0642 3.63203L92.6859 5.36479C92.2761 5.10958 91.8137 4.90809 91.2987 4.76034C90.7943 4.59915 90.3319 4.51856 89.9116 4.51856Z" fill="white"/>
<path d="M94.6159 6.29162H96.0819V16.9502H94.6159V6.29162ZM95.3411 2.0403C95.6038 2.0403 95.8192 2.15447 95.9873 2.38282C96.166 2.61117 96.2553 2.89997 96.2553 3.24921C96.2553 3.59844 96.166 3.88724 95.9873 4.11559C95.8192 4.34394 95.6038 4.45811 95.3411 4.45811C95.0783 4.45811 94.8576 4.34394 94.679 4.11559C94.5108 3.88724 94.4268 3.59844 94.4268 3.24921C94.4268 2.89997 94.5108 2.61117 94.679 2.38282C94.8576 2.15447 95.0783 2.0403 95.3411 2.0403Z" fill="white"/>
<path d="M103.576 6.23118C104.553 6.23118 105.321 6.60057 105.878 7.33934C106.434 8.06469 106.713 9.07211 106.713 10.3616V16.9502H105.247V10.8653C105.247 9.96536 105.047 9.26688 104.648 8.76988C104.259 8.25946 103.718 8.00424 103.024 8.00424C102.278 8.01767 101.669 8.32662 101.196 8.93107C100.733 9.52209 100.471 10.2945 100.408 11.2481V16.9502H98.9416V6.29162H100.408V8.54825C100.965 7.0304 102.021 6.25804 103.576 6.23118Z" fill="white"/>
<path d="M117.088 6.29162V16.9502H115.622V14.8749C115.307 15.5733 114.886 16.1106 114.361 16.4867C113.836 16.8629 113.221 17.0509 112.517 17.0509C111.729 17.0509 111.03 16.8226 110.42 16.3659C109.821 15.8957 109.354 15.251 109.017 14.4316C108.681 13.5988 108.513 12.6518 108.513 11.5907C108.513 10.5429 108.681 9.61612 109.017 8.81018C109.354 7.99081 109.826 7.35278 110.436 6.89608C111.045 6.43938 111.739 6.21103 112.517 6.21103C113.221 6.21103 113.836 6.39908 114.361 6.77519C114.886 7.13786 115.307 7.66843 115.622 8.36691V6.29162H117.088ZM112.816 15.439C113.594 15.439 114.235 15.1301 114.739 14.5122C115.254 13.8809 115.549 13.0615 115.622 12.0541V11.2481C115.549 10.2407 115.254 9.42135 114.739 8.79003C114.235 8.15871 113.594 7.84305 112.816 7.84305C112.27 7.84305 111.781 8.01096 111.35 8.34677C110.93 8.66914 110.599 9.11912 110.357 9.69671C110.115 10.2743 109.995 10.9258 109.995 11.6511C109.995 12.3765 110.115 13.0279 110.357 13.6055C110.599 14.1831 110.93 14.6331 111.35 14.9555C111.781 15.2778 112.27 15.439 112.816 15.439Z" fill="white"/>
<path d="M124.573 6.23118C125.551 6.23118 126.318 6.60057 126.875 7.33934C127.432 8.06469 127.71 9.07211 127.71 10.3616V16.9502H126.244V10.8653C126.244 9.96536 126.045 9.26688 125.645 8.76988C125.256 8.25946 124.715 8.00424 124.022 8.00424C123.276 8.01767 122.666 8.32662 122.193 8.93107C121.731 9.52209 121.468 10.2945 121.405 11.2481V16.9502H119.939V6.29162H121.405V8.54825C121.962 7.0304 123.018 6.25804 124.573 6.23118Z" fill="white"/>
<path d="M136.178 9.13256C135.516 8.31319 134.723 7.9035 133.798 7.9035C133.251 7.9035 132.763 8.05797 132.332 8.36691C131.911 8.67586 131.58 9.11241 131.339 9.67657C131.097 10.2407 130.976 10.8922 130.976 11.631C130.976 12.3697 131.092 13.0212 131.323 13.5854C131.565 14.1495 131.89 14.5928 132.3 14.9152C132.721 15.2241 133.199 15.3786 133.735 15.3786C134.271 15.3786 134.754 15.2644 135.185 15.0361C135.616 14.8077 135.973 14.4786 136.257 14.0488L137.092 15.1368C136.714 15.7413 136.231 16.2047 135.642 16.527C135.064 16.8494 134.407 17.0106 133.672 17.0106C132.862 17.0106 132.143 16.7823 131.512 16.3256C130.882 15.8689 130.388 15.2375 130.03 14.4316C129.684 13.6122 129.51 12.6787 129.51 11.631C129.51 10.5832 129.684 9.6497 130.03 8.83033C130.388 8.01096 130.882 7.37292 131.512 6.91623C132.143 6.45953 132.862 6.23118 133.672 6.23118C134.376 6.23118 135.006 6.37222 135.563 6.65429C136.131 6.92294 136.604 7.31919 136.982 7.84305L136.178 9.13256Z" fill="white"/>
<path d="M142.359 15.4793C143.368 15.4793 144.224 14.9353 144.928 13.8473L145.811 14.8547C144.907 16.292 143.725 17.0106 142.264 17.0106C141.434 17.0106 140.693 16.7823 140.041 16.3256C139.4 15.8689 138.896 15.2375 138.528 14.4316C138.171 13.6122 137.992 12.672 137.992 11.6108C137.992 10.5765 138.166 9.6497 138.512 8.83033C138.859 8.01096 139.353 7.37292 139.994 6.91623C140.635 6.45953 141.376 6.23118 142.217 6.23118C143.278 6.23118 144.145 6.62743 144.818 7.41994C145.501 8.19901 145.895 9.26016 146 10.6034L139.71 13.2227C139.921 13.9212 140.257 14.4719 140.719 14.8749C141.192 15.2778 141.739 15.4793 142.359 15.4793ZM142.217 7.78261C141.376 7.78261 140.709 8.11842 140.215 8.79003C139.721 9.44822 139.474 10.3616 139.474 11.5302V11.7922L144.55 9.67657C144.15 8.41393 143.373 7.78261 142.217 7.78261Z" fill="white"/>
</svg>
