<svg width="121" height="26" viewBox="0 0 121 26" fill="none" xmlns="http://www.w3.org/2000/svg">
<path d="M25.0479 19.5V16.848L29.9836 8.8335H25.2359V6.084H33.3838V8.6385L28.401 16.7505H33.3995V19.5H25.0479Z" fill="white"/>
<path d="M42.051 15.3075H37.2719C37.2719 15.9315 37.3085 16.367 37.3816 16.614C37.4652 16.861 37.6375 17.0235 37.8987 17.1015C38.1703 17.1795 38.6508 17.2185 39.3402 17.2185C40.0819 17.2185 40.881 17.1665 41.7376 17.0625V19.305C41.4033 19.409 40.9542 19.4935 40.3901 19.5585C39.8364 19.6235 39.288 19.656 38.7448 19.656C37.5226 19.656 36.6295 19.4935 36.0654 19.1685C35.5118 18.8305 35.1566 18.3235 34.9999 17.6475C34.8432 16.9715 34.7649 15.938 34.7649 14.547C34.7649 13.182 34.8432 12.155 34.9999 11.466C35.1566 10.777 35.4961 10.2635 36.0184 9.9255C36.5511 9.5745 37.3816 9.399 38.5098 9.399C39.638 9.399 40.4475 9.568 40.9385 9.906C41.4399 10.231 41.7481 10.725 41.863 11.388C41.9883 12.038 42.051 13.091 42.051 14.547V15.3075ZM38.4941 11.6805C38.1181 11.6805 37.8465 11.726 37.6793 11.817C37.5122 11.908 37.4025 12.09 37.3503 12.363C37.298 12.623 37.2719 13.065 37.2719 13.689H39.685C39.685 13.065 39.6536 12.6165 39.5909 12.3435C39.5283 12.0705 39.4186 11.895 39.2619 11.817C39.1052 11.726 38.8493 11.6805 38.4941 11.6805Z" fill="white"/>
<path d="M44.4453 19.5V11.9925H43.0037V9.555H44.4453V6.669H46.9994V9.555H48.723V11.9925H46.9994V19.5H44.4453Z" fill="white"/>
<path d="M54.8065 14.2545C54.8065 13.5265 54.7803 13.0195 54.7281 12.7335C54.6863 12.4475 54.5975 12.2655 54.4617 12.1875C54.3259 12.1095 54.0752 12.0705 53.7096 12.0705C53.3545 12.0705 53.0933 12.1355 52.9262 12.2655C52.7695 12.3825 52.665 12.5905 52.6128 12.8895C52.5606 13.1885 52.5345 13.663 52.5345 14.313V19.5H50.0117V5.0115H52.5345V10.7055H52.6598C52.8792 10.2375 53.1769 9.906 53.5529 9.711C53.9394 9.503 54.3938 9.399 54.9161 9.399C55.5951 9.399 56.107 9.5485 56.4517 9.8475C56.8069 10.1335 57.0419 10.5495 57.1568 11.0955C57.2717 11.6285 57.3292 12.3565 57.3292 13.2795V19.5H54.8065V14.2545Z" fill="white"/>
<path d="M62.6076 23.517C62.1166 23.517 61.61 23.491 61.0877 23.439C60.5758 23.4 60.1528 23.3415 59.8185 23.2635V21.0405L60.5549 21.06L61.9965 21.0795C62.6755 21.0795 63.1508 21.0275 63.4224 20.9235C63.694 20.8325 63.8611 20.657 63.9238 20.397C63.9969 20.137 64.0335 19.6625 64.0335 18.9735V18.1545H63.9081C63.6992 18.6095 63.4067 18.941 63.0306 19.149C62.6546 19.344 62.195 19.4415 61.6518 19.4415C60.9728 19.4415 60.4557 19.2985 60.1005 19.0125C59.7558 18.7265 59.526 18.317 59.4111 17.784C59.2962 17.238 59.2387 16.5035 59.2387 15.5805V9.555H61.7615V14.625C61.7615 15.353 61.7823 15.86 61.8241 16.146C61.8764 16.419 61.9704 16.5945 62.1062 16.6725C62.242 16.7505 62.4927 16.7895 62.8583 16.7895C63.2134 16.7895 63.4694 16.731 63.6261 16.614C63.7932 16.484 63.9029 16.276 63.9551 15.99C64.0073 15.691 64.0335 15.2165 64.0335 14.5665V9.555H66.5562V18.3885C66.5562 19.7275 66.4778 20.735 66.3211 21.411C66.1645 22.1 65.8041 22.62 65.24 22.971C64.6863 23.335 63.8089 23.517 62.6076 23.517Z" fill="white"/>
<path d="M68.4657 9.555H70.8631L70.9258 11.2515H71.0668C71.2653 10.5625 71.563 10.0815 71.9599 9.8085C72.3569 9.5355 72.8896 9.399 73.5582 9.399V12.363C72.8792 12.363 72.3569 12.467 71.9913 12.675C71.6361 12.87 71.3802 13.2145 71.2235 13.7085C71.0668 14.2025 70.9884 14.9045 70.9884 15.8145V19.5H68.4657V9.555Z" fill="white"/>
<path d="M11.7518 8.66666H16.5396V11.9167L9.57556 16.25H4.35254V14.0833L11.7518 8.66666Z" fill="url(#paint0_linear)"/>
<path d="M0.870483 2.16666L15.0726 6.09432C15.9394 6.33402 16.5395 7.1227 16.5395 8.02196V11.9167L0.870483 7.58333V2.16666Z" fill="url(#paint1_linear)"/>
<path d="M4.35254 14.0833L20.0216 18.4167V23.8333L5.81944 19.9057C4.95272 19.666 4.35254 18.8773 4.35254 17.978V14.0833Z" fill="url(#paint2_linear)"/>
<path d="M82.8389 8.697C82.327 8.294 81.7943 7.995 81.2407 7.8C80.6975 7.592 80.1961 7.488 79.7364 7.488C79.0992 7.488 78.5874 7.644 78.2009 7.956C77.8248 8.255 77.6368 8.671 77.6368 9.204C77.6368 9.685 77.7517 10.0815 77.9815 10.3935C78.2113 10.6925 78.4933 10.933 78.8276 11.115C79.1619 11.284 79.6267 11.4855 80.2222 11.7195C80.9638 12.0055 81.5645 12.2785 82.0241 12.5385C82.4837 12.7985 82.8755 13.1885 83.1993 13.7085C83.5231 14.2155 83.685 14.8915 83.685 15.7365C83.685 16.5165 83.5127 17.199 83.1679 17.784C82.8337 18.369 82.3584 18.824 81.7421 19.149C81.1362 19.461 80.4363 19.617 79.6424 19.617C78.8381 19.617 78.0546 19.422 77.2921 19.032C76.5295 18.642 75.8714 18.122 75.3177 17.472L75.9915 15.8535C76.5138 16.4905 77.0988 16.9845 77.7465 17.3355C78.4046 17.6735 79.0418 17.8425 79.6581 17.8425C80.3893 17.8425 80.9638 17.667 81.3817 17.316C81.81 16.952 82.0241 16.4645 82.0241 15.8535C82.0241 15.3725 81.9092 14.976 81.6794 14.664C81.4496 14.352 81.1571 14.105 80.8019 13.923C80.4572 13.741 79.9871 13.5395 79.3917 13.3185C78.6605 13.0455 78.0651 12.779 77.6054 12.519C77.1458 12.259 76.7541 11.8755 76.4303 11.3685C76.1169 10.8615 75.9602 10.192 75.9602 9.36C75.9602 8.632 76.1221 7.9885 76.4459 7.4295C76.7697 6.8705 77.2242 6.4415 77.8091 6.1425C78.3941 5.8435 79.0731 5.694 79.8461 5.694C80.5042 5.694 81.1466 5.8175 81.7734 6.0645C82.4106 6.2985 82.9747 6.617 83.4657 7.02L82.8389 8.697Z" fill="white"/>
<path d="M98.5583 15.327C98.5583 16.172 98.4173 16.9195 98.1352 17.5695C97.8636 18.2065 97.4719 18.7005 96.96 19.0515C96.4586 19.4025 95.8789 19.578 95.2208 19.578C94.5313 19.578 93.8993 19.37 93.3248 18.954C92.7607 18.525 92.3533 17.966 92.1026 17.277C91.8728 17.966 91.4706 18.525 90.8961 18.954C90.332 19.37 89.7053 19.578 89.0158 19.578C88.3473 19.578 87.7571 19.4025 87.2452 19.0515C86.7438 18.7005 86.3521 18.2065 86.07 17.5695C85.788 16.9195 85.647 16.172 85.647 15.327V9.1845H87.1199V15.249C87.1199 16.042 87.3131 16.6725 87.6996 17.1405C88.0861 17.6085 88.598 17.8425 89.2352 17.8425C89.8828 17.8425 90.3999 17.6085 90.7864 17.1405C91.1729 16.6725 91.3662 16.042 91.3662 15.249V9.1845H92.8391V15.249C92.8391 16.042 93.0375 16.6725 93.4345 17.1405C93.8314 17.6085 94.3537 17.8425 95.0014 17.8425C95.6282 17.8425 96.1296 17.6085 96.5056 17.1405C96.8921 16.6725 97.0854 16.042 97.0854 15.249V9.1845H98.5583V15.327Z" fill="white"/>
<path d="M108.803 9.1845V19.5H107.345V17.4915C107.032 18.1675 106.614 18.6875 106.092 19.0515C105.57 19.4155 104.959 19.5975 104.259 19.5975C103.475 19.5975 102.781 19.3765 102.175 18.9345C101.579 18.4795 101.114 17.8555 100.78 17.0625C100.446 16.2565 100.279 15.34 100.279 14.313C100.279 13.299 100.446 12.402 100.78 11.622C101.114 10.829 101.584 10.2115 102.19 9.7695C102.796 9.3275 103.486 9.1065 104.259 9.1065C104.959 9.1065 105.57 9.2885 106.092 9.6525C106.614 10.0035 107.032 10.517 107.345 11.193V9.1845H108.803ZM104.556 18.0375C105.329 18.0375 105.967 17.7385 106.468 17.1405C106.98 16.5295 107.272 15.7365 107.345 14.7615V13.9815C107.272 13.0065 106.98 12.2135 106.468 11.6025C105.967 10.9915 105.329 10.686 104.556 10.686C104.013 10.686 103.527 10.8485 103.099 11.1735C102.681 11.4855 102.352 11.921 102.112 12.48C101.872 13.039 101.752 13.6695 101.752 14.3715C101.752 15.0735 101.872 15.704 102.112 16.263C102.352 16.822 102.681 17.2575 103.099 17.5695C103.527 17.8815 104.013 18.0375 104.556 18.0375Z" fill="white"/>
<path d="M116.243 9.126C117.016 9.126 117.706 9.347 118.311 9.789C118.917 10.231 119.387 10.8485 119.722 11.6415C120.056 12.4345 120.223 13.3445 120.223 14.3715C120.223 15.3855 120.056 16.289 119.722 17.082C119.398 17.862 118.933 18.473 118.327 18.915C117.732 19.344 117.047 19.5585 116.274 19.5585C115.575 19.5585 114.958 19.3765 114.426 19.0125C113.893 18.6485 113.475 18.1285 113.172 17.4525V23.283H111.715V9.1845H113.172V11.232C113.475 10.556 113.888 10.036 114.41 9.672C114.943 9.308 115.554 9.126 116.243 9.126ZM115.961 17.979C116.494 17.979 116.969 17.823 117.387 17.511C117.815 17.199 118.144 16.7635 118.374 16.2045C118.614 15.6455 118.735 15.015 118.735 14.313C118.735 13.624 118.614 13 118.374 12.441C118.134 11.882 117.805 11.4465 117.387 11.1345C116.969 10.8225 116.494 10.6665 115.961 10.6665C115.428 10.6665 114.948 10.8225 114.52 11.1345C114.102 11.4465 113.773 11.882 113.532 12.441C113.292 13 113.172 13.624 113.172 14.313C113.172 15.028 113.292 15.665 113.532 16.224C113.773 16.77 114.102 17.199 114.52 17.511C114.948 17.823 115.428 17.979 115.961 17.979Z" fill="white"/>
<defs>
<linearGradient id="paint0_linear" x1="2.61153" y1="20.5833" x2="20.0565" y2="10.5678" gradientUnits="userSpaceOnUse">
<stop offset="0.537374" stop-color="#ACC3FF"/>
</linearGradient>
<linearGradient id="paint1_linear" x1="0.870483" y1="4.875" x2="21.9646" y2="7.69999" gradientUnits="userSpaceOnUse">
<stop stop-color="#6892FF"/>
<stop offset="1" stop-color="#2762FB"/>
</linearGradient>
<linearGradient id="paint2_linear" x1="0.870525" y1="16.7917" x2="21.9646" y2="19.6167" gradientUnits="userSpaceOnUse">
<stop stop-color="#6892FF"/>
<stop offset="1" stop-color="#2762FB"/>
</linearGradient>
</defs>
</svg>
