<svg width="211" height="45" viewBox="0 0 211 45" fill="none" xmlns="http://www.w3.org/2000/svg">
<path d="M43.6785 33.75V29.16L52.2854 15.2887H44.0064V10.53H58.2147V14.9512L49.5257 28.9912H58.242V33.75H43.6785Z" fill="#141B2D"/>
<path d="M73.3286 26.4937H64.9948C64.9948 27.5737 65.0586 28.3275 65.1861 28.755C65.3318 29.1825 65.6324 29.4637 66.0878 29.5987C66.5614 29.7337 67.3993 29.8012 68.6016 29.8012C69.8949 29.8012 71.2884 29.7112 72.7821 29.5312V33.4125C72.1992 33.5925 71.4159 33.7387 70.4322 33.8512C69.4668 33.9637 68.5105 34.02 67.5633 34.02C65.432 34.02 63.8746 33.7387 62.8909 33.1762C61.9255 32.5912 61.3061 31.7137 61.0329 30.5437C60.7596 29.3737 60.623 27.585 60.623 25.1775C60.623 22.815 60.7596 21.0375 61.0329 19.845C61.3061 18.6525 61.8981 17.7637 62.8089 17.1787C63.7379 16.5712 65.1861 16.2675 67.1534 16.2675C69.1207 16.2675 70.5324 16.56 71.3886 17.145C72.2629 17.7075 72.8003 18.5625 73.0007 19.71C73.2193 20.835 73.3286 22.6575 73.3286 25.1775V26.4937ZM67.1261 20.2162C66.4703 20.2162 65.9967 20.295 65.7052 20.4525C65.4138 20.61 65.2225 20.925 65.1314 21.3975C65.0404 21.8475 64.9948 22.6125 64.9948 23.6925H69.2027C69.2027 22.6125 69.148 21.8362 69.0387 21.3637C68.9294 20.8912 68.7382 20.5875 68.4649 20.4525C68.1917 20.295 67.7454 20.2162 67.1261 20.2162Z" fill="#141B2D"/>
<path d="M77.5038 33.75V20.7562H74.99V16.5375H77.5038V11.5425H81.9575V16.5375H84.9631V20.7562H81.9575V33.75H77.5038Z" fill="#141B2D"/>
<path d="M95.5716 24.6712C95.5716 23.4112 95.526 22.5337 95.435 22.0387C95.3621 21.5437 95.2073 21.2287 94.9705 21.0937C94.7337 20.9587 94.2965 20.8912 93.6589 20.8912C93.0396 20.8912 92.5842 21.0037 92.2927 21.2287C92.0195 21.4312 91.8373 21.7912 91.7463 22.3087C91.6552 22.8262 91.6096 23.6475 91.6096 24.7725V33.75H87.2105V8.67374H91.6096V18.5287H91.8282C92.2108 17.7187 92.7299 17.145 93.3857 16.8075C94.0597 16.4475 94.8521 16.2675 95.7628 16.2675C96.9469 16.2675 97.8395 16.5262 98.4406 17.0437C99.0599 17.5387 99.4698 18.2587 99.6701 19.2037C99.8705 20.1262 99.9707 21.3862 99.9707 22.9837V33.75H95.5716V24.6712Z" fill="#141B2D"/>
<path d="M109.175 40.7025C108.319 40.7025 107.436 40.6575 106.525 40.5675C105.632 40.5 104.894 40.3987 104.312 40.2637V36.4162L105.596 36.45L108.11 36.4837C109.294 36.4837 110.122 36.3937 110.596 36.2137C111.07 36.0562 111.361 35.7525 111.47 35.3025C111.598 34.8525 111.662 34.0312 111.662 32.8387V31.4212H111.443C111.079 32.2087 110.569 32.7825 109.913 33.1425C109.257 33.48 108.456 33.6487 107.508 33.6487C106.324 33.6487 105.423 33.4012 104.803 32.9062C104.202 32.4112 103.802 31.7025 103.601 30.78C103.401 29.835 103.301 28.5637 103.301 26.9662V16.5375H107.7V25.3125C107.7 26.5725 107.736 27.45 107.809 27.945C107.9 28.4175 108.064 28.7212 108.301 28.8562C108.538 28.9912 108.975 29.0587 109.612 29.0587C110.232 29.0587 110.678 28.9575 110.951 28.755C111.243 28.53 111.434 28.17 111.525 27.675C111.616 27.1575 111.662 26.3362 111.662 25.2112V16.5375H116.061V31.8262C116.061 34.1437 115.924 35.8875 115.651 37.0575C115.378 38.25 114.749 39.15 113.766 39.7575C112.8 40.3875 111.27 40.7025 109.175 40.7025Z" fill="#141B2D"/>
<path d="M119.391 16.5375H123.571L123.68 19.4737H123.926C124.272 18.2812 124.792 17.4487 125.484 16.9762C126.176 16.5037 127.105 16.2675 128.271 16.2675V21.3975C127.087 21.3975 126.176 21.5775 125.538 21.9375C124.919 22.275 124.473 22.8712 124.2 23.7262C123.926 24.5812 123.79 25.7962 123.79 27.3712V33.75H119.391V16.5375Z" fill="#141B2D"/>
<path d="M20.4928 15H28.8418V20.625L16.6979 28.125H7.58997V24.375L20.4928 15Z" fill="url(#paint0_linear)"/>
<path d="M1.51794 3.75L27.3711 10.8463C28.2396 11.0847 28.8417 11.8743 28.8417 12.775V20.625L1.51794 13.125V3.75Z" fill="url(#paint1_linear)"/>
<path d="M7.58997 24.375L34.9137 31.875V41.25L9.06057 34.1537C8.19201 33.9153 7.58997 33.1257 7.58997 32.225V24.375Z" fill="url(#paint2_linear)"/>
<path d="M144.455 15.0525C143.562 14.355 142.633 13.8375 141.667 13.5C140.72 13.14 139.846 12.96 139.044 12.96C137.933 12.96 137.041 13.23 136.367 13.77C135.711 14.2875 135.383 15.0075 135.383 15.93C135.383 16.7625 135.583 17.4487 135.984 17.9887C136.385 18.5062 136.877 18.9225 137.46 19.2375C138.043 19.53 138.853 19.8787 139.891 20.2837C141.185 20.7787 142.232 21.2512 143.034 21.7012C143.835 22.1512 144.518 22.8262 145.083 23.7262C145.648 24.6037 145.93 25.7737 145.93 27.2362C145.93 28.5862 145.629 29.7675 145.028 30.78C144.445 31.7925 143.617 32.58 142.542 33.1425C141.485 33.6825 140.265 33.9525 138.88 33.9525C137.478 33.9525 136.112 33.615 134.782 32.94C133.452 32.265 132.305 31.365 131.339 30.24L132.514 27.4387C133.425 28.5412 134.445 29.3962 135.574 30.0037C136.722 30.5887 137.833 30.8812 138.908 30.8812C140.183 30.8812 141.185 30.5775 141.913 29.97C142.66 29.34 143.034 28.4962 143.034 27.4387C143.034 26.6062 142.833 25.92 142.433 25.38C142.032 24.84 141.522 24.4125 140.902 24.0975C140.301 23.7825 139.482 23.4337 138.443 23.0512C137.168 22.5787 136.13 22.1175 135.328 21.6675C134.527 21.2175 133.844 20.5537 133.279 19.6762C132.733 18.7987 132.459 17.64 132.459 16.2C132.459 14.94 132.742 13.8262 133.306 12.8587C133.871 11.8912 134.663 11.1487 135.684 10.6312C136.704 10.1137 137.888 9.85498 139.236 9.85498C140.383 9.85498 141.504 10.0687 142.596 10.4962C143.708 10.9012 144.691 11.4525 145.547 12.15L144.455 15.0525Z" fill="black"/>
<path d="M171.866 26.5275C171.866 27.99 171.62 29.2837 171.128 30.4087C170.655 31.5112 169.972 32.3662 169.079 32.9737C168.205 33.5812 167.194 33.885 166.046 33.885C164.844 33.885 163.742 33.525 162.74 32.805C161.756 32.0625 161.046 31.095 160.609 29.9025C160.208 31.095 159.507 32.0625 158.505 32.805C157.521 33.525 156.428 33.885 155.226 33.885C154.06 33.885 153.031 33.5812 152.138 32.9737C151.264 32.3662 150.581 31.5112 150.089 30.4087C149.597 29.2837 149.351 27.99 149.351 26.5275V15.8962H151.92V26.3925C151.92 27.765 152.257 28.8562 152.931 29.6662C153.605 30.4762 154.497 30.8812 155.608 30.8812C156.738 30.8812 157.639 30.4762 158.313 29.6662C158.987 28.8562 159.324 27.765 159.324 26.3925V15.8962H161.893V26.3925C161.893 27.765 162.239 28.8562 162.931 29.6662C163.623 30.4762 164.534 30.8812 165.663 30.8812C166.756 30.8812 167.631 30.4762 168.287 29.6662C168.961 28.8562 169.298 27.765 169.298 26.3925V15.8962H171.866V26.5275Z" fill="black"/>
<path d="M189.73 15.8962V33.75H187.189V30.2737C186.643 31.4437 185.914 32.3437 185.003 32.9737C184.092 33.6037 183.027 33.9187 181.806 33.9187C180.44 33.9187 179.229 33.5362 178.172 32.7712C177.134 31.9837 176.323 30.9037 175.74 29.5312C175.157 28.1362 174.866 26.55 174.866 24.7725C174.866 23.0175 175.157 21.465 175.74 20.115C176.323 18.7425 177.143 17.6737 178.2 16.9087C179.256 16.1437 180.458 15.7612 181.806 15.7612C183.027 15.7612 184.092 16.0762 185.003 16.7062C185.914 17.3137 186.643 18.2025 187.189 19.3725V15.8962H189.73ZM182.325 31.2187C183.673 31.2187 184.785 30.7012 185.659 29.6662C186.551 28.6087 187.062 27.2362 187.189 25.5487V24.1987C187.062 22.5112 186.551 21.1387 185.659 20.0812C184.785 19.0237 183.673 18.495 182.325 18.495C181.378 18.495 180.531 18.7762 179.784 19.3387C179.056 19.8787 178.482 20.6325 178.063 21.6C177.644 22.5675 177.434 23.6587 177.434 24.8737C177.434 26.0887 177.644 27.18 178.063 28.1475C178.482 29.115 179.056 29.8687 179.784 30.4087C180.531 30.9487 181.378 31.2187 182.325 31.2187Z" fill="black"/>
<path d="M202.705 15.795C204.053 15.795 205.255 16.1775 206.312 16.9425C207.368 17.7075 208.188 18.7762 208.771 20.1487C209.354 21.5212 209.645 23.0962 209.645 24.8737C209.645 26.6287 209.354 28.1925 208.771 29.565C208.206 30.915 207.395 31.9725 206.339 32.7375C205.301 33.48 204.107 33.8512 202.759 33.8512C201.539 33.8512 200.464 33.5362 199.535 32.9062C198.606 32.2762 197.878 31.3762 197.349 30.2062V40.2975H194.808V15.8962H197.349V19.44C197.878 18.27 198.597 17.37 199.508 16.74C200.437 16.11 201.503 15.795 202.705 15.795ZM202.213 31.1175C203.142 31.1175 203.971 30.8475 204.699 30.3075C205.446 29.7675 206.02 29.0137 206.421 28.0462C206.84 27.0787 207.049 25.9875 207.049 24.7725C207.049 23.58 206.84 22.5 206.421 21.5325C206.002 20.565 205.428 19.8112 204.699 19.2712C203.971 18.7312 203.142 18.4612 202.213 18.4612C201.284 18.4612 200.446 18.7312 199.699 19.2712C198.971 19.8112 198.397 20.565 197.978 21.5325C197.559 22.5 197.349 23.58 197.349 24.7725C197.349 26.01 197.559 27.1125 197.978 28.08C198.397 29.025 198.971 29.7675 199.699 30.3075C200.446 30.8475 201.284 31.1175 202.213 31.1175Z" fill="black"/>
<defs>
<linearGradient id="paint0_linear" x1="4.55399" y1="35.625" x2="34.861" y2="18.094" gradientUnits="userSpaceOnUse">
<stop offset="0.537374" stop-color="#ACC3FF"/>
</linearGradient>
<linearGradient id="paint1_linear" x1="1.51794" y1="8.4375" x2="38.2921" y2="13.3995" gradientUnits="userSpaceOnUse">
<stop stop-color="#6892FF"/>
<stop offset="1" stop-color="#2762FB"/>
</linearGradient>
<linearGradient id="paint2_linear" x1="1.51802" y1="29.0625" x2="38.2921" y2="34.0245" gradientUnits="userSpaceOnUse">
<stop stop-color="#6892FF"/>
<stop offset="1" stop-color="#2762FB"/>
</linearGradient>
</defs>
</svg>
